<?xml version="1.0" encoding="iso-8859-1"?>
<!-- Uploaded to: SVG Repo, www.svgrepo.com, Generator: SVG Repo Mixer Tools -->
<svg height="800px" width="800px" version="1.1" id="Layer_1" xmlns="http://www.w3.org/2000/svg" xmlns:xlink="http://www.w3.org/1999/xlink" 
	 viewBox="0 0 512 512" xml:space="preserve">
<circle style="fill:#0F7986;" cx="256" cy="256" r="256"/>
<path style="fill:#FAD24D;" d="M251.279,361.973c26.036,0,47.142,21.105,47.142,47.142c0,26.034-21.105,47.142-47.142,47.142
	c-26.034,0-47.142-21.107-47.142-47.142C204.138,383.079,225.245,361.973,251.279,361.973z"/>
<path style="fill:#EDB937;" d="M251.279,372.823c20.046,0,36.292,16.249,36.292,36.292c0,20.046-16.249,36.292-36.292,36.292
	c-20.046,0-36.292-16.249-36.292-36.292C214.987,389.069,231.235,372.823,251.279,372.823z"/>
<path style="fill:#FFFFFF;" d="M241.683,396.672c0-3.031,0.62-5.475,1.856-7.334c1.239-1.858,3.095-3.064,5.571-3.619v-3.331h5.764
	v3.331c2.518,0.513,4.407,1.697,5.667,3.555c1.262,1.856,1.889,4.324,1.889,7.397v1.407h-6.661v-1.858
	c0-1.621-0.308-2.765-0.928-3.426c-0.62-0.662-1.483-0.992-2.593-0.992c-1.11,0-1.976,0.33-2.594,0.992
	c-0.62,0.662-0.928,1.802-0.928,3.426c0,1.537,0.342,2.859,1.026,3.972c0.682,1.11,1.537,2.145,2.562,3.106
	c1.024,0.961,2.125,1.9,3.298,2.818c1.175,0.919,2.274,1.954,3.298,3.106c1.024,1.153,1.878,2.487,2.562,4.001
	c0.684,1.517,1.024,3.341,1.024,5.475c0,3.075-0.64,5.549-1.92,7.43c-1.281,1.878-3.18,3.075-5.7,3.586v3.267h-5.764v-3.267
	c-2.562-0.513-4.472-1.708-5.733-3.586c-1.259-1.878-1.887-4.354-1.887-7.43v-3.075h6.659v3.521c0,1.623,0.33,2.756,0.992,3.395
	c0.662,0.64,1.55,0.959,2.658,0.959c1.11,0,1.996-0.319,2.658-0.959c0.662-0.64,0.992-1.772,0.992-3.395
	c0-1.537-0.339-2.859-1.026-3.97c-0.682-1.11-1.537-2.147-2.56-3.106c-1.026-0.961-2.125-1.9-3.3-2.818
	c-1.175-0.919-2.274-1.954-3.298-3.106c-1.024-1.153-1.878-2.487-2.562-4.003c-0.684-1.516-1.024-3.339-1.024-5.475L241.683,396.672
	z"/>
<path style="fill:#FAD24D;" d="M253.458,87.804c14.045,0,25.432,11.387,25.432,25.432s-11.387,25.432-25.432,25.432
	c-14.046,0-25.432-11.387-25.432-25.432S239.411,87.804,253.458,87.804z"/>
<path style="fill:#EDB937;" d="M253.458,93.657c10.814,0,19.58,8.766,19.58,19.58s-8.766,19.58-19.58,19.58
	s-19.58-8.766-19.58-19.58S242.644,93.657,253.458,93.657z"/>
<path style="fill:#FFFFFF;" d="M248.28,106.524c0-1.634,0.335-2.953,1.001-3.956c0.669-1.001,1.67-1.652,3.006-1.952v-1.797h3.109
	v1.797c1.359,0.277,2.378,0.915,3.057,1.918c0.68,1.001,1.019,2.333,1.019,3.99v0.76h-3.593v-1.001c0-0.875-0.167-1.492-0.502-1.847
	c-0.335-0.357-0.799-0.535-1.399-0.535s-1.066,0.178-1.399,0.535c-0.335,0.357-0.502,0.975-0.502,1.847
	c0,0.83,0.185,1.543,0.555,2.143c0.368,0.6,0.828,1.157,1.381,1.674c0.553,0.52,1.146,1.026,1.779,1.521
	c0.635,0.495,1.228,1.055,1.781,1.677c0.553,0.622,1.015,1.341,1.381,2.158c0.368,0.817,0.553,1.802,0.553,2.953
	c0,1.659-0.346,2.995-1.037,4.01c-0.691,1.012-1.717,1.659-3.075,1.934v1.763h-3.109v-1.763c-1.381-0.275-2.413-0.921-3.091-1.934
	c-0.68-1.015-1.019-2.351-1.019-4.01v-1.659h3.595v1.9c0,0.875,0.178,1.485,0.535,1.829c0.357,0.346,0.835,0.52,1.434,0.52
	c0.599,0,1.077-0.174,1.434-0.52c0.357-0.346,0.535-0.957,0.535-1.829c0-0.83-0.185-1.543-0.553-2.143
	c-0.368-0.6-0.828-1.157-1.381-1.674c-0.553-0.52-1.146-1.026-1.781-1.521c-0.633-0.495-1.226-1.055-1.779-1.674
	c-0.553-0.622-1.015-1.343-1.383-2.161c-0.368-0.817-0.553-1.802-0.553-2.955L248.28,106.524z"/>
<path style="fill:#FAD24D;" d="M170.776,84.491c12.052,0,21.822,9.77,21.822,21.822s-9.77,21.822-21.822,21.822
	c-12.052,0-21.822-9.77-21.822-21.822S158.724,84.491,170.776,84.491z"/>
<path style="fill:#EDB937;" d="M170.776,89.511c9.279,0,16.802,7.522,16.802,16.802s-7.522,16.799-16.802,16.799
	c-9.279,0-16.799-7.522-16.799-16.799C153.976,97.034,161.5,89.511,170.776,89.511z"/>
<path style="fill:#FFFFFF;" d="M166.335,100.554c0-1.403,0.286-2.536,0.859-3.395c0.573-0.859,1.434-1.419,2.58-1.674v-1.541h2.669
	v1.541c1.166,0.238,2.041,0.786,2.622,1.646c0.584,0.859,0.875,2.001,0.875,3.424v0.653h-3.082v-0.859
	c0-0.753-0.145-1.281-0.431-1.588c-0.286-0.306-0.686-0.46-1.199-0.46c-0.513,0-0.915,0.154-1.202,0.46
	c-0.286,0.306-0.431,0.835-0.431,1.588c0,0.711,0.16,1.323,0.475,1.838c0.315,0.513,0.711,0.992,1.186,1.439
	c0.473,0.444,0.984,0.879,1.525,1.303c0.544,0.426,1.053,0.906,1.525,1.439c0.475,0.533,0.87,1.153,1.186,1.854
	c0.315,0.702,0.473,1.548,0.473,2.533c0,1.423-0.295,2.569-0.888,3.439c-0.593,0.868-1.472,1.423-2.638,1.659v1.512h-2.669v-1.512
	c-1.186-0.238-2.069-0.79-2.654-1.659c-0.582-0.87-0.875-2.016-0.875-3.439v-1.423h3.084v1.63c0,0.753,0.154,1.275,0.46,1.572
	s0.718,0.444,1.231,0.444c0.515,0,0.923-0.147,1.231-0.444c0.306-0.295,0.46-0.819,0.46-1.572c0-0.711-0.158-1.323-0.473-1.838
	c-0.317-0.513-0.713-0.995-1.186-1.439c-0.475-0.444-0.984-0.879-1.528-1.303c-0.544-0.426-1.053-0.903-1.525-1.439
	c-0.473-0.533-0.87-1.153-1.186-1.854C166.494,102.386,166.336,101.54,166.335,100.554L166.335,100.554L166.335,100.554z"/>
<path style="fill:#FAD24D;" d="M335.275,84.491c12.052,0,21.822,9.77,21.822,21.822s-9.77,21.822-21.822,21.822
	c-12.052,0-21.822-9.77-21.822-21.822S323.223,84.491,335.275,84.491z"/>
<path style="fill:#EDB937;" d="M335.275,89.511c9.279,0,16.799,7.522,16.799,16.802s-7.52,16.799-16.799,16.799
	c-9.279,0-16.799-7.522-16.799-16.799C318.476,97.034,325.996,89.511,335.275,89.511z"/>
<path style="fill:#FFFFFF;" d="M330.832,100.554c0-1.403,0.286-2.536,0.861-3.395c0.573-0.859,1.432-1.419,2.58-1.674v-1.541h2.667
	v1.541c1.166,0.238,2.041,0.786,2.625,1.646s0.875,2.001,0.875,3.424v0.653h-3.084v-0.859c0-0.753-0.142-1.281-0.428-1.588
	c-0.288-0.306-0.686-0.46-1.202-0.46c-0.513,0-0.912,0.154-1.199,0.46c-0.288,0.306-0.431,0.835-0.431,1.588
	c0,0.711,0.158,1.323,0.473,1.838c0.317,0.513,0.713,0.992,1.186,1.439c0.475,0.444,0.984,0.879,1.528,1.303
	c0.544,0.426,1.053,0.906,1.525,1.439c0.473,0.533,0.868,1.153,1.186,1.854c0.315,0.702,0.473,1.548,0.473,2.533
	c0,1.423-0.295,2.569-0.89,3.439c-0.591,0.868-1.472,1.423-2.638,1.659v1.512h-2.667v-1.512c-1.186-0.238-2.072-0.79-2.654-1.659
	c-0.584-0.87-0.875-2.016-0.875-3.439v-1.423h3.082v1.63c0,0.753,0.154,1.275,0.46,1.572c0.306,0.297,0.718,0.444,1.231,0.444
	s0.924-0.147,1.231-0.444c0.306-0.295,0.46-0.819,0.46-1.572c0-0.711-0.158-1.323-0.475-1.838c-0.315-0.513-0.713-0.995-1.186-1.439
	s-0.984-0.879-1.525-1.303c-0.544-0.426-1.053-0.903-1.525-1.439c-0.475-0.533-0.87-1.153-1.186-1.854
	C330.99,102.385,330.832,101.54,330.832,100.554z"/>
<path style="fill:#FAD24D;" d="M293.905,55.745c8.522,0,15.43,6.908,15.43,15.43s-6.908,15.43-15.43,15.43
	c-8.522,0-15.43-6.908-15.43-15.43S285.383,55.745,293.905,55.745z"/>
<path style="fill:#EDB937;" d="M293.905,59.296c6.561,0,11.879,5.318,11.879,11.879c0,6.561-5.318,11.879-11.879,11.879
	s-11.879-5.318-11.879-11.879C282.026,64.614,287.344,59.296,293.905,59.296z"/>
<path style="fill:#FFFFFF;" d="M290.765,67.103c0-0.992,0.202-1.792,0.606-2.4c0.406-0.609,1.015-1.004,1.823-1.186v-1.09h1.887
	v1.09c0.823,0.167,1.443,0.555,1.856,1.164c0.411,0.609,0.617,1.414,0.617,2.42v0.462h-2.181v-0.609
	c0-0.531-0.102-0.903-0.304-1.121c-0.203-0.218-0.486-0.326-0.848-0.326c-0.364,0-0.646,0.109-0.848,0.326
	c-0.203,0.218-0.304,0.591-0.304,1.121c0,0.504,0.111,0.937,0.335,1.301c0.225,0.364,0.504,0.702,0.839,1.017
	c0.335,0.313,0.695,0.622,1.079,0.921c0.384,0.299,0.744,0.64,1.079,1.017c0.335,0.377,0.615,0.812,0.839,1.31
	c0.222,0.495,0.335,1.095,0.335,1.791c0,1.006-0.209,1.818-0.629,2.431c-0.419,0.615-1.041,1.006-1.865,1.175v1.07h-1.887v-1.07
	c-0.837-0.167-1.463-0.56-1.876-1.175c-0.413-0.615-0.62-1.425-0.62-2.431v-1.006h2.181v1.153c0,0.531,0.109,0.901,0.324,1.11
	c0.218,0.209,0.506,0.315,0.87,0.315s0.655-0.105,0.87-0.315c0.218-0.209,0.326-0.58,0.326-1.11c0-0.504-0.111-0.937-0.335-1.301
	c-0.222-0.364-0.502-0.702-0.837-1.017c-0.335-0.315-0.695-0.622-1.079-0.923c-0.384-0.299-0.744-0.64-1.079-1.017
	c-0.335-0.377-0.615-0.814-0.837-1.31c-0.225-0.495-0.335-1.093-0.335-1.791L290.765,67.103z"/>
<path style="fill:#FAD24D;" d="M213.011,55.745c8.522,0,15.43,6.908,15.43,15.43s-6.908,15.43-15.43,15.43s-15.43-6.908-15.43-15.43
	S204.489,55.745,213.011,55.745z"/>
<path style="fill:#EDB937;" d="M213.011,59.296c6.561,0,11.879,5.318,11.879,11.879c0,6.561-5.318,11.879-11.879,11.879
	s-11.879-5.318-11.879-11.879C201.132,64.614,206.45,59.296,213.011,59.296z"/>
<path style="fill:#FFFFFF;" d="M209.869,67.103c0-0.992,0.202-1.792,0.606-2.4c0.406-0.609,1.015-1.004,1.825-1.186v-1.09h1.885
	v1.09c0.823,0.167,1.443,0.555,1.856,1.164s0.62,1.414,0.62,2.42v0.462h-2.181v-0.609c0-0.531-0.102-0.903-0.304-1.121
	c-0.203-0.218-0.486-0.326-0.848-0.326c-0.364,0-0.646,0.109-0.848,0.326c-0.203,0.218-0.304,0.591-0.304,1.121
	c0,0.504,0.111,0.937,0.335,1.301c0.225,0.364,0.504,0.702,0.839,1.017c0.335,0.313,0.695,0.622,1.079,0.921
	c0.384,0.299,0.744,0.64,1.079,1.017s0.615,0.812,0.839,1.31c0.222,0.495,0.335,1.095,0.335,1.791c0,1.006-0.209,1.818-0.629,2.431
	c-0.419,0.615-1.041,1.006-1.865,1.175v1.07h-1.885v-1.07c-0.839-0.167-1.463-0.56-1.876-1.175c-0.413-0.615-0.62-1.425-0.62-2.431
	v-1.006h2.181v1.153c0,0.531,0.109,0.901,0.324,1.11c0.218,0.209,0.506,0.315,0.87,0.315s0.655-0.105,0.87-0.315
	c0.216-0.209,0.324-0.58,0.324-1.11c0-0.504-0.111-0.937-0.335-1.301c-0.222-0.364-0.502-0.702-0.837-1.017
	c-0.335-0.315-0.695-0.622-1.079-0.923c-0.384-0.299-0.744-0.64-1.079-1.017c-0.335-0.377-0.615-0.814-0.839-1.31
	c-0.222-0.495-0.335-1.093-0.335-1.791L209.869,67.103z"/>
<path style="fill:#21D0C3;" d="M115.514,135.807h272.58c4.532,0,8.238,3.706,8.238,8.238v8.242H107.276v-8.242
	C107.276,139.513,110.983,135.807,115.514,135.807z"/>
<path style="fill:#15BDB2;" d="M208.829,264.14l-81.713-111.854H376.49L294.776,264.14h-85.95H208.829z"/>
<path style="fill:#10ADA3;" d="M131.666,158.512l-4.55-6.226H376.49l-4.55,6.226H131.664H131.666z"/>
<path style="fill:#21D0C3;" d="M294.779,264.14h-85.95l21.105,103.602h43.743L294.779,264.14z"/>
<path style="fill:#15BDB2;" d="M294.779,264.14h-13.225l-7.878,103.602L294.779,264.14z"/>
<path style="fill:#21D0C3;" d="M367.321,164.841h28.148c2.165,0,4.099,0.371,5.629,1.128c1.327,0.655,2.353,1.605,2.971,2.855
	l0.009-0.004c0.642,1.296,0.83,2.842,0.46,4.641c-0.319,1.548-1.077,3.293-2.342,5.229l-24.176,36.932
	c-1.494,2.285-4.308,5-7.876,7.13c-2.837,1.694-6.226,3.08-9.879,3.648l-42.785,6.675l5.034-6.89l38.043-5.933
	c2.618-0.408,5.069-1.414,7.136-2.649c2.451-1.463,4.281-3.171,5.165-4.518l24.178-36.932c0.702-1.073,1.106-1.969,1.257-2.689
	c0.093-0.455,0.069-0.803-0.053-1.05l0.002-0.013c-0.142-0.288-0.437-0.537-0.85-0.742c-0.767-0.377-1.871-0.564-3.204-0.564
	h-31.426l4.563-6.246l0.002-0.004L367.321,164.841z"/>
</svg>